<svg xmlns="http://www.w3.org/2000/svg" viewBox="0 0 512 512">
<rect width="512" height="512" fill="#6E1F2A"/>
<rect x="82" y="82" width="348" height="348" fill="none" stroke="#A88A3F" stroke-width="4" rx="6"/>
<g transform="translate(256,268) scale(3.05)"><path d="M30,34 C44,14 46,-10 40,-34" fill="none" stroke="#93A06A" stroke-width="2.6" stroke-linecap="round"/><path d="M42,4 q10,-3 13,-11 q-11,2 -13,11 z" fill="#93A06A" opacity="0.9"/><circle cx="35.4" cy="-20.2" r="4.6" fill="#C9B7DE"/><circle cx="40.7" cy="-23.3" r="4.4" fill="#C9B7DE"/><circle cx="36.1" cy="-27.2" r="4.2" fill="#C9B7DE"/><circle cx="41.1" cy="-30.3" r="4.0" fill="#C9B7DE"/><circle cx="36.8" cy="-34.2" r="3.8" fill="#C9B7DE"/><circle cx="41.4" cy="-37.3" r="3.6" fill="#C9B7DE"/><circle cx="37.5" cy="-41.1" r="3.5" fill="#C9B7DE"/><circle cx="41.7" cy="-44.4" r="3.3" fill="#C9B7DE"/><circle cx="38.2" cy="-48.1" r="3.1" fill="#C9B7DE"/><path d="M-30,34 C-44,14 -46,-10 -40,-34" fill="none" stroke="#93A06A" stroke-width="2.6" stroke-linecap="round"/><path d="M-42,4 q-10,-3 -13,-11 q11,2 13,11 z" fill="#93A06A" opacity="0.9"/><circle cx="-40.6" cy="-19.8" r="4.6" fill="#C9B7DE"/><circle cx="-35.8" cy="-23.7" r="4.4" fill="#C9B7DE"/><circle cx="-40.9" cy="-26.8" r="4.2" fill="#C9B7DE"/><circle cx="-36.4" cy="-30.7" r="4.0" fill="#C9B7DE"/><circle cx="-41.2" cy="-33.8" r="3.8" fill="#C9B7DE"/><circle cx="-37.1" cy="-37.7" r="3.6" fill="#C9B7DE"/><circle cx="-41.5" cy="-40.9" r="3.5" fill="#C9B7DE"/><circle cx="-37.8" cy="-44.6" r="3.3" fill="#C9B7DE"/><circle cx="-41.8" cy="-47.9" r="3.1" fill="#C9B7DE"/><g fill="#C9A94A"><path d="M0,0 C11,-15 11,-36 0,-50 C-11,-36 -11,-15 0,0 Z" transform="translate(0,-6)"/><path d="M0,0 C11,-15 11,-36 0,-50 C-11,-36 -11,-15 0,0 Z" transform="translate(0,-6) rotate(-52)"/><path d="M0,0 C11,-15 11,-36 0,-50 C-11,-36 -11,-15 0,0 Z" transform="translate(0,-6) rotate(52)"/><rect x="-20" y="-2" width="40" height="10" rx="5"/><path d="M0,6 C6,16 6,28 0,34 C-6,28 -6,16 0,6 Z"/><rect x="-16" y="32" width="32" height="7" rx="3.5"/></g></g>
</svg>